<?xml version="1.0" standalone="no"?><!DOCTYPE svg PUBLIC "-//W3C//DTD SVG 1.1//EN" "http://www.w3.org/Graphics/SVG/1.1/DTD/svg11.dtd"><svg t="1548299114849" class="icon" style="" viewBox="0 0 1024 1024" version="1.1" xmlns="http://www.w3.org/2000/svg" p-id="1683" xmlns:xlink="http://www.w3.org/1999/xlink" width="200" height="200"><defs><style type="text/css"></style></defs><path d="M766.220457 366.077458q-2.033764 21.354518-11.694141 34.065541t-19.829196 19.829196q-12.202582 8.135055-26.438928 11.1857-8.135055 17.286991-17.286991 32.540218-8.135055 13.219464-16.77855 25.930487t-16.77855 19.829196q-9.151936 8.135055-17.286991 13.727905t-14.236346 11.694141-10.168818 14.744786-6.101291 20.846077q-2.033764 14.236346-4.575968 28.472691t-1.016882 28.472691 9.660377 27.96425 28.472691 24.913605l0 298.963257q0 8.135055 3.050645 15.761668t8.135055 12.711023q-48.810328 5.084409-94.57001 8.135055t-80.333664 3.050645q-29.489573 0-68.639523-2.542205t-80.842105-6.101291-82.367428-8.135055-74.232373-9.660377-56.945382-10.168818-29.489573-10.168818q-11.1857-8.135055-16.77855-49.82721t4.575968-107.789474q4.067527-25.422046 16.77855-41.692155t31.014896-27.96425 40.675273-18.812314 45.759682-13.727905 45.251241-14.236346 40.166832-18.812314q21.354518-13.219464 33.048659-25.930487t16.270109-24.913605 4.575968-25.422046-1.016882-28.472691q-2.033764-24.405164-16.270109-37.624628t-30.506455-27.455809q-8.135055-7.118173-16.270109-19.829196t-14.236346-25.930487q-7.118173-15.253227-14.236346-32.540218-11.1857-2.033764-21.354518-7.118173-9.151936-5.084409-18.303873-14.236346t-14.236346-26.438928q-6.101291-17.286991-2.542205-31.523337t10.677259-24.405164q8.135055-11.1857 20.337637-21.354518 1.016882-38.641509 8.135055-77.283019 6.101291-32.540218 17.795432-70.164846t33.048659-67.114201q19.320755-28.472691 43.217478-46.268123t48.810328-27.96425 49.82721-13.727905 48.301887-3.559086q29.489573 0 56.945382 6.609732t50.844091 17.795432 41.692155 25.422046 29.489573 28.472691q26.438928 32.540218 41.183714 72.19861t22.879841 74.232373q9.151936 40.675273 12.202582 81.350546 10.168818 5.084409 18.303873 13.219464 7.118173 7.118173 11.694141 18.303873t2.542205 28.472691zM922.820258 702.665343q16.270109 0 26.947368 11.1857t10.677259 26.438928l0 172.869911q0 8.135055-10.677259 25.930487t-24.913605 36.607746-28.472691 33.048659-22.3714 14.236346l-131.177756 0q-16.270109 0-26.947368-10.677259t-10.677259-26.947368l0-245.06852q0-15.253227 10.677259-26.438928t26.947368-11.1857l179.988083 0zM783.507448 765.712016q-8.135055 0-13.219464 6.609732t-5.084409 23.896723q0 12.202582 5.084409 21.862959t13.219464 9.660377l101.688183 0q8.135055 0 9.151936-11.694141t1.016882-19.829196-1.016882-19.320755-9.151936-11.1857l-101.688183 0zM879.09434 948.750745q8.135055 0 12.711023-12.202582t4.575968-20.337637-4.575968-17.286991-12.711023-9.151936l-97.620655 0q-8.135055 0-12.711023 10.168818t-4.575968 18.303873 4.575968 19.320755 12.711023 11.1857l97.620655 0z" p-id="1684"></path></svg>