<?xml version="1.0" standalone="no"?><!DOCTYPE svg PUBLIC "-//W3C//DTD SVG 1.1//EN" "http://www.w3.org/Graphics/SVG/1.1/DTD/svg11.dtd"><svg t="1548654705073" class="icon" style="" viewBox="0 0 1024 1024" version="1.1" xmlns="http://www.w3.org/2000/svg" p-id="3063" xmlns:xlink="http://www.w3.org/1999/xlink" width="200" height="200"><defs><style type="text/css"></style></defs><path d="M792 822H232a90.1 90.1 0 0 1-90-90v-70a50 50 0 0 1 100 0v60h540v-60a50 50 0 0 1 100 0v70a90.1 90.1 0 0 1-90 90z m90-460v-70a90.1 90.1 0 0 0-90-90H232a90.1 90.1 0 0 0-90 90v70a50 50 0 0 0 100 0v-60h540v60a50 50 0 0 0 100 0z m-635 95a55 55 0 1 0 55 55 55 55 0 0 0-55-55z m176.67 0a55 55 0 1 0 55 55 55 55 0 0 0-55-55zM777 457a55 55 0 1 0 55 55 55 55 0 0 0-55-55z m-176.67 0a55 55 0 1 0 55 55 55 55 0 0 0-55-55z" fill="" p-id="3064"></path></svg>