<?xml version="1.0" standalone="no"?><!DOCTYPE svg PUBLIC "-//W3C//DTD SVG 1.1//EN" "http://www.w3.org/Graphics/SVG/1.1/DTD/svg11.dtd"><svg t="1549000172060" class="icon" style="" viewBox="0 0 1024 1024" version="1.1" xmlns="http://www.w3.org/2000/svg" p-id="3882" xmlns:xlink="http://www.w3.org/1999/xlink" width="200" height="200"><defs><style type="text/css"></style></defs><path d="M945.125093 253.099439c-7.411807-10.317996-18.319228-17.775852-31.775704-23.152303 0.542352 12.384052-0.218988 22.547529-2.688225 30.688953L749.083162 792.235472c-5.747911 18.897396-27.998681 30.676673-49.009204 30.676673L202.964086 822.912146c-43.091424 0-68.65259-12.494569-77.573773-37.697577-3.464915-9.78997-3.353374-17.312294 0.545422-23.155373 3.65218-5.470595 10.769274-8.080026 20.481474-8.080026l468.022393 0c33.390481 0 56.404638-6.061043 68.945255-18.304901 12.788258-12.524245 25.8876-40.370453 38.771025-82.9492l147.57508-487.949234c7.987928-26.415626 4.846378-50.096978-9.697873-70.018703-14.545274-19.937075-35.008328-30.160927-61.393255-30.160927L388.763746 64.596204c-4.846378 0-13.999852 1.614777-27.472702 4.848425l0.545422-1.616824c-68.948325-19.393699-71.946612 54.558593-95.334275 87.794555-7.303336 10.396791-21.957081 25.874297-23.696702 33.394574-1.490957 6.479575 3.356444 22.080901 2.703575 28.002774-1.490957 13.488199-6.695492 31.140231-15.087627 52.226478-8.314363 20.915355-15.618723 36.113499-22.6253 45.248553l-11.840676 12.385075c-6.060019 6.340405-10.239202 11.311627-11.840676 16.161075-1.632173 1.613754-1.89721 7.039323-0.544399 15.072277 1.351787 8.143471 2.068102 14.002922 1.616824 17.247826-1.708921 12.370749-5.918803 28.54615-13.472849 48.465828-7.535627 19.936051-15.198144 36.549427-22.607904 49.555649-1.198292 2.095731-4.320399 6.464225-9.169847 12.383028-4.832052 5.921873-8.096399 11.296277-9.152451 15.089673-1.647523 5.904477 2.161223 24.224728 0 31.233352-2.688225 13.450337-7.970532 30.201859-16.159028 49.530067-7.972579 18.895349-16.117073 35.585473-24.242124 49.04195-7.490601 12.399401-21.318538 26.384927-22.065552 36.608779-0.325411 4.350075 3.869121 16.162098 3.216251 22.065552L69.389882 709.287295c-0.870834 8.113795-1.616824 12.930497-1.616824 14.544251-8.081049 21.539572-7.659447 44.194548 1.071402 68.403926 10.116405 28.03245 28.05087 51.65445 53.331649 70.548776 25.888624 19.329231 52.770877 29.089525 80.244602 29.089525l497.110895 0c23.153326 0 45.141106-8.204869 65.715701-23.713075 20.900006-15.756869 34.435277-34.465976 41.473577-57.621349l148.102083-487.965607C962.687074 296.670793 959.796234 273.472442 945.125093 253.099439z" p-id="3883"></path><path d="M338.681094 357.585141c2.968611-9.076726 13.472849-17.232476 22.60995-17.232476l327.470263 0c10.223852 0 14.824637 8.15575 11.840676 17.232476l-11.296277 34.463929c-2.983961 9.076726-13.472849 17.232476-22.6253 17.232476L339.210144 409.281547c-10.224876 0-14.824637-8.156774-11.840676-17.232476L338.681094 357.585141z" p-id="3884"></path><path d="M383.371946 219.706911c2.983961-9.076726 13.472849-17.232476 22.6253-17.232476l327.470263 0c10.242272 0 14.823614 8.156774 11.839653 17.232476l-11.310603 34.463929c-2.967588 9.074679-13.473873 17.247826-22.610974 17.247826L383.916345 271.418666c-10.224876 0-14.824637-8.17417-11.840676-17.247826L383.371946 219.706911z" p-id="3885"></path></svg>