<?xml version="1.0" standalone="no"?><!DOCTYPE svg PUBLIC "-//W3C//DTD SVG 1.1//EN" "http://www.w3.org/Graphics/SVG/1.1/DTD/svg11.dtd"><svg t="1548299465339" class="icon" style="" viewBox="0 0 1024 1024" version="1.1" xmlns="http://www.w3.org/2000/svg" p-id="1684" xmlns:xlink="http://www.w3.org/1999/xlink" width="200" height="200"><defs><style type="text/css"></style></defs><path d="M787.746228 190.171224 699.137121 190.171224 583.898517 190.171224c0-0.005117 0-0.010233 0-0.01535l0-21.803585c0-16.019859-12.986779-29.006637-29.006637-29.006637L443.293175 139.345652c-16.019859 0-29.006637 12.986779-29.006637 29.006637l0 21.803585c0 0.005117 0 0.010233 0 0.01535L299.047934 190.171224l-88.609107 0c-17.007349 0-30.365588 14.564717-28.89919 31.508621l5.097088 58.882062 624.912629 0 5.097088-58.882062C818.112839 204.735941 804.753577 190.171224 787.746228 190.171224z" p-id="1685"></path><path d="M238.672868 881.737926l0.514723 0 519.810896 0 0.514723 0 45.570895-526.474666L193.101973 355.26326 238.672868 881.737926zM603.584881 509.114277c0-16.019859 12.986779-29.006637 29.006637-29.006637l23.619954 0c16.019859 0 29.006637 12.986779 29.006637 29.006637l0 234.651274c0 16.019859-12.986779 29.006637-29.006637 29.006637l-23.619954 0c-16.019859 0-29.006637-12.986779-29.006637-29.006637L603.584881 509.114277zM458.275401 509.114277c0-16.019859 12.986779-29.006637 29.006637-29.006637l23.619954 0c16.019859 0 29.006637 12.986779 29.006637 29.006637l0 234.651274c0 16.019859-12.986779 29.006637-29.006637 29.006637l-23.619954 0c-16.019859 0-29.006637-12.986779-29.006637-29.006637L458.275401 509.114277zM312.965921 509.114277c0-16.019859 12.986779-29.006637 29.006637-29.006637l23.619954 0c16.019859 0 29.006637 12.986779 29.006637 29.006637l0 234.651274c0 16.019859-12.986779 29.006637-29.006637 29.006637l-23.619954 0c-16.019859 0-29.006637-12.986779-29.006637-29.006637L312.965921 509.114277z" p-id="1686"></path></svg>