<?xml version="1.0" standalone="no"?><!DOCTYPE svg PUBLIC "-//W3C//DTD SVG 1.1//EN" "http://www.w3.org/Graphics/SVG/1.1/DTD/svg11.dtd"><svg t="1548299480522" class="icon" style="" viewBox="0 0 1024 1024" version="1.1" xmlns="http://www.w3.org/2000/svg" p-id="1801" xmlns:xlink="http://www.w3.org/1999/xlink" width="200" height="200"><defs><style type="text/css"></style></defs><path d="M427.9 839.1H248.7c-42.3 0-76.8-34.5-76.8-76.8v-512c0-42.3 34.5-76.8 76.8-76.8h409.6c42.3 0 76.8 34.5 76.8 76.8v153.6c0 14.2-11.4 25.6-25.6 25.6-14.2 0-25.6-11.4-25.6-25.6V250.3c0-14.1-11.5-25.6-25.6-25.6H248.7c-14.1 0-25.6 11.5-25.6 25.6v512c0 14.1 11.5 25.6 25.6 25.6h179.2c14.2 0 25.6 11.4 25.6 25.6 0 14.2-11.5 25.6-25.6 25.6z m0 0" fill="" p-id="1802"></path><path d="M671.1 890.3c-58.2 0-112.8-22.6-153.8-63.8-41.1-41-63.8-95.7-63.8-153.8 0-58.2 22.6-112.8 63.8-153.8 41-41.1 95.7-63.8 153.8-63.8s112.8 22.6 153.8 63.8c41 41.1 63.8 95.8 63.8 153.8 0 58.2-22.6 112.8-63.8 153.8-41.1 41.1-95.7 63.8-153.8 63.8z m0-384c-91.8 0-166.4 74.6-166.4 166.4 0 91.8 74.6 166.4 166.4 166.4 91.8 0 166.4-74.6 166.4-166.4 0-91.7-74.7-166.4-166.4-166.4z m0 0M607.1 378.3H299.9c-14.2 0-25.6-11.4-25.6-25.6 0-14.2 11.4-25.6 25.6-25.6h307.2c14.2 0 25.6 11.4 25.6 25.6 0 14.2-11.5 25.6-25.6 25.6z m0 0M427.9 531.9h-128c-14.2 0-25.6-11.4-25.6-25.6 0-14.2 11.4-25.6 25.6-25.6h128c14.2 0 25.6 11.4 25.6 25.6 0 14.2-11.5 25.6-25.6 25.6z m0 0M376.7 685.5h-76.8c-14.2 0-25.6-11.4-25.6-25.6 0-14.2 11.4-25.6 25.6-25.6h76.8c14.2 0 25.6 11.4 25.6 25.6 0 14.2-11.5 25.6-25.6 25.6z m0 0" fill="" p-id="1803"></path><path d="M683.9 762.3c-5 0-10-1.4-14.2-4.3l-76.8-51.2c-11.8-7.8-15-23.8-7.1-35.5 7.8-11.8 23.8-15 35.5-7.1l54.5 36.3 63-105c7.3-12.2 23-16.1 35.1-8.8 12.2 7.3 16.1 23 8.8 35.1l-76.8 128c-3.6 6-9.5 10.2-16.3 11.8-2 0.6-3.9 0.7-5.7 0.7z m0 0" fill="" p-id="1804"></path></svg>