<?xml version="1.0" standalone="no"?><!DOCTYPE svg PUBLIC "-//W3C//DTD SVG 1.1//EN" "http://www.w3.org/Graphics/SVG/1.1/DTD/svg11.dtd"><svg t="1548299496267" class="icon" style="" viewBox="0 0 1024 1024" version="1.1" xmlns="http://www.w3.org/2000/svg" p-id="1919" xmlns:xlink="http://www.w3.org/1999/xlink" width="200" height="200"><defs><style type="text/css"></style></defs><path d="M722.706286 943.926857H301.312c-84.571429 0-153.398857-66.724571-153.398857-148.772571v-521.874286c0-82.029714 68.809143-148.754286 153.398857-148.754286h32.859429a18.285714 18.285714 0 0 1 0 36.571429h-32.859429c-64.420571 0-116.827429 50.322286-116.827429 112.182857v521.874286c0 61.860571 52.406857 112.201143 116.827429 112.201143h421.412571c64.402286 0 116.827429-50.340571 116.827429-112.201143v-521.874286c0-61.860571-52.406857-112.182857-116.827429-112.182857h-33.115428a18.285714 18.285714 0 1 1 0-36.571429h33.115428c84.589714 0 153.398857 66.724571 153.398858 148.754286v521.874286c-0.018286 82.048-68.827429 148.772571-153.417143 148.772571z" p-id="1920"></path><path d="M551.625143 226.340571h-91.428572c-35.291429 0-64-28.708571-64-64v-18.285714c0-35.291429 28.708571-64 64-64h91.428572c35.291429 0 64 28.708571 64 64v18.285714c0 35.291429-28.708571 64-64 64z m-91.428572-109.714285c-15.122286 0-27.428571 12.306286-27.428571 27.428571v18.285714c0 15.122286 12.306286 27.428571 27.428571 27.428572h91.428572c15.122286 0 27.428571-12.306286 27.428571-27.428572v-18.285714c0-15.122286-12.306286-27.428571-27.428571-27.428571h-91.428572z" p-id="1921"></path><path d="M491.355429 612.461714c-6.363429 6.345143-17.499429 5.467429-24.96-1.974857-7.460571-7.424-8.32-18.614857-1.993143-24.941714l132.205714-132.187429c6.363429-6.345143 17.499429-5.449143 24.96 1.993143 7.424 7.424 8.32 18.614857 1.993143 24.923429l-132.205714 132.187428z" p-id="1922"></path><path d="M512.018286 771.949714c-131.072 0-237.714286-106.642286-237.714286-237.714285 0-131.090286 106.642286-237.714286 237.714286-237.714286s237.714286 106.642286 237.714285 237.714286-106.642286 237.714286-237.714285 237.714285z m0-438.875428c-110.902857 0-201.142857 90.24-201.142857 201.142857s90.24 201.142857 201.142857 201.142857 201.142857-90.24 201.142857-201.142857-90.24-201.142857-201.142857-201.142857z" p-id="1923"></path><path d="M492.854857 585.472a18.267429 18.267429 0 0 1 0 25.856 18.230857 18.230857 0 0 1-25.856 0l-77.586286-77.568a18.267429 18.267429 0 0 1 0-25.856 18.230857 18.230857 0 0 1 25.856 0l77.586286 77.568z" p-id="1924"></path></svg>