<?xml version="1.0" standalone="no"?><!DOCTYPE svg PUBLIC "-//W3C//DTD SVG 1.1//EN" "http://www.w3.org/Graphics/SVG/1.1/DTD/svg11.dtd"><svg t="1548299758100" class="icon" style="" viewBox="0 0 1024 1024" version="1.1" xmlns="http://www.w3.org/2000/svg" p-id="2873" xmlns:xlink="http://www.w3.org/1999/xlink" width="200" height="200"><defs><style type="text/css"></style></defs><path d="M903.111111 0H720.483556v57.827556H903.111111a40.135111 40.135111 0 0 1 40.092445 40.092444v828.145778a40.135111 40.135111 0 0 1-40.092445 40.092444h-782.222222a40.135111 40.135111 0 0 1-40.106667-40.092444V97.934222A40.135111 40.135111 0 0 1 120.888889 57.841778h176.881778V0H120.903111C66.901333 0 22.954667 43.932444 22.954667 97.934222v828.145778c0 53.987556 43.946667 97.92 97.948444 97.92h782.222222a98.048 98.048 0 0 0 97.934223-97.934222V97.934222A98.062222 98.062222 0 0 0 903.111111 0z" p-id="2874"></path><path d="M276.352 470.144l-40.888889 40.888889 202.126222 202.140444 355.384889-355.384889-40.888889-40.888888-314.496 314.481777zM377.073778 0h269.880889v57.827556H377.073778z" p-id="2875"></path></svg>