<?xml version="1.0" standalone="no"?><!DOCTYPE svg PUBLIC "-//W3C//DTD SVG 1.1//EN" "http://www.w3.org/Graphics/SVG/1.1/DTD/svg11.dtd"><svg t="1548301078063" class="icon" style="" viewBox="0 0 1024 1024" version="1.1" xmlns="http://www.w3.org/2000/svg" p-id="9526" xmlns:xlink="http://www.w3.org/1999/xlink" width="200" height="200"><defs><style type="text/css"></style></defs><path d="M550.4 550.4 256 550.4C211.2 550.4 172.8 512 172.8 467.2L172.8 307.2c0-44.8 38.4-83.2 83.2-83.2l294.4 0c44.8 0 83.2 38.4 83.2 83.2l0 153.6C633.6 512 595.2 550.4 550.4 550.4z" p-id="9527"></path><path d="M326.4 345.6l364.8-211.2c32-19.2 70.4 6.4 70.4 38.4l0 422.4c0 38.4-38.4 57.6-70.4 38.4L326.4 422.4C300.8 403.2 300.8 364.8 326.4 345.6z" p-id="9528"></path><path d="M832 480c64 0 64-44.8 64-76.8s0-76.8-64-76.8L832 480z" p-id="9529"></path><path d="M467.2 896 384 896c-25.6 0-44.8-19.2-44.8-44.8L268.8 608c0-25.6 19.2-44.8 44.8-44.8l83.2 0c25.6 0 44.8 19.2 44.8 44.8L512 851.2C512 876.8 492.8 896 467.2 896z" p-id="9530"></path></svg>