<?xml version="1.0" standalone="no"?><!DOCTYPE svg PUBLIC "-//W3C//DTD SVG 1.1//EN" "http://www.w3.org/Graphics/SVG/1.1/DTD/svg11.dtd"><svg t="1548299268858" class="icon" style="" viewBox="0 0 1024 1024" version="1.1" xmlns="http://www.w3.org/2000/svg" p-id="2386" xmlns:xlink="http://www.w3.org/1999/xlink" width="200" height="200"><defs><style type="text/css"></style></defs><path d="M876 616H772v-78c0-28.7-23.3-52-52-52H538v-78h78c28.7 0 52-23.3 52-52V148c0-28.7-23.3-52-52-52H408c-28.7 0-52 23.3-52 52v208c0 28.7 23.3 52 52 52h78v78H304c-28.7 0-52 23.3-52 52v78H148c-28.7 0-52 23.3-52 52v208c0 28.7 23.3 52 52 52h208c28.7 0 52-23.3 52-52V668c0-28.7-23.3-52-52-52h-52v-78h416v78h-52c-28.7 0-52 23.3-52 52v208c0 28.7 23.3 52 52 52h208c28.7 0 52-23.3 52-52V668c0-28.7-23.3-52-52-52zM408 356V148h208v208H408z m-52 312v208H148V668h208z m520 208H668V668h208v208z" p-id="2387"></path></svg>