<?xml version="1.0" standalone="no"?><!DOCTYPE svg PUBLIC "-//W3C//DTD SVG 1.1//EN" "http://www.w3.org/Graphics/SVG/1.1/DTD/svg11.dtd"><svg t="1548301211975" class="icon" style="" viewBox="0 0 1024 1024" version="1.1" xmlns="http://www.w3.org/2000/svg" p-id="10422" xmlns:xlink="http://www.w3.org/1999/xlink" width="200" height="200"><defs><style type="text/css"></style></defs><path d="M630.784 413.696l77.824 0 0-163.84c0-96.256-77.824-172.032-172.032-172.032l-51.2 0c-96.256 0-172.032 77.824-172.032 172.032l0 69.632 73.728 0 0-67.584c0 0 6.144-92.16 92.16-92.16 81.92 0 63.488 0 63.488 0s88.064-4.096 88.064 86.016C632.832 342.016 630.784 413.696 630.784 413.696z" p-id="10423"></path><path d="M237.568 464.896l0 247.808c0 129.024 104.448 235.52 235.52 235.52l77.824 0c129.024 0 235.52-104.448 235.52-235.52L786.432 464.896 237.568 464.896zM544.768 669.696l0 75.776c0 16.384-12.288 28.672-28.672 28.672l-8.192 0c-16.384 0-28.672-12.288-28.672-28.672l0-75.776c-18.432-12.288-32.768-32.768-32.768-55.296 0-36.864 28.672-65.536 65.536-65.536s65.536 28.672 65.536 65.536C577.536 638.976 563.2 659.456 544.768 669.696z" p-id="10424"></path></svg>