<?xml version="1.0" standalone="no"?><!DOCTYPE svg PUBLIC "-//W3C//DTD SVG 1.1//EN" "http://www.w3.org/Graphics/SVG/1.1/DTD/svg11.dtd"><svg t="1549000330656" class="icon" style="" viewBox="0 0 1024 1024" version="1.1" xmlns="http://www.w3.org/2000/svg" p-id="5375" xmlns:xlink="http://www.w3.org/1999/xlink" width="200" height="200"><defs><style type="text/css"></style></defs><path d="M755.593 32.298h-487.186c-59.523 0-107.943 48.42-107.943 107.943v743.518c0 59.523 48.42 107.943 107.943 107.943h487.186c59.523 0 107.943-48.42 107.943-107.943v-743.518c0-59.523-48.419-107.943-107.943-107.943zM268.406 104.26h487.186c19.853 0 35.981 16.128 35.981 35.981v575.136h-559.149v-575.136c0-19.853 16.128-35.981 35.981-35.981zM755.593 919.74h-487.186c-19.853 0-35.981-16.128-35.981-35.981v-96.418h559.149v96.418c0 19.853-16.128 35.981-35.981 35.981z" p-id="5376"></path><path d="M355.583 223.097h316.909c19.888 0 35.981-16.094 35.981-35.981s-16.094-35.981-35.981-35.981h-316.909c-19.888 0-35.981 16.094-35.981 35.981 0 19.888 16.094 35.981 35.981 35.981z" p-id="5377"></path><path d="M465.482 853.996c0 26.823 21.745 48.569 48.569 48.569s48.569-21.745 48.569-48.569c0-26.823-21.745-48.569-48.569-48.569-26.823 0-48.569 21.745-48.569 48.569z" p-id="5378"></path></svg>