<?xml version="1.0" standalone="no"?><!DOCTYPE svg PUBLIC "-//W3C//DTD SVG 1.1//EN" "http://www.w3.org/Graphics/SVG/1.1/DTD/svg11.dtd"><svg t="1548300040476" class="icon" style="" viewBox="0 0 1024 1024" version="1.1" xmlns="http://www.w3.org/2000/svg" p-id="5749" xmlns:xlink="http://www.w3.org/1999/xlink" width="200" height="200"><defs><style type="text/css"></style></defs><path d="M514.048 585.728c-2.048-2.048-8.192-2.048-8.192 0l4.096-6.144 4.096 6.144z m124.928-149.504l-98.304 169.984c-12.288 22.528-38.912 24.576-57.344 6.144l-120.832-129.024-120.832 223.232c-8.192 16.384-28.672 28.672-49.152 28.672h-81.92c-34.816 0-61.44-26.624-61.44-61.44v-512c0-34.816 26.624-61.44 61.44-61.44h798.72c34.816 0 61.44 26.624 61.44 61.44v512c0 34.816-26.624 61.44-61.44 61.44H532.48v143.36h184.32c12.288 0 20.48 8.192 20.48 20.48s-8.192 20.48-20.48 20.48h-409.6c-12.288 0-20.48-8.192-20.48-20.48s8.192-20.48 20.48-20.48h184.32v-143.36c0-22.528 18.432-40.96 40.96-40.96h378.88c12.288 0 20.48-8.192 20.48-20.48v-512c0-10.24-10.24-20.48-20.48-20.48h-798.72c-12.288 0-20.48 8.192-20.48 20.48v512c0 10.24 10.24 20.48 20.48 20.48h81.92c4.096 0 10.24-4.096 12.288-6.144l124.928-231.424c12.288-22.528 38.912-26.624 57.344-8.192l120.832 129.024 98.304-169.984c-20.48-22.528-32.768-51.2-32.768-83.968 0-67.584 55.296-122.88 122.88-122.88s122.88 55.296 122.88 122.88-55.296 122.88-122.88 122.88c-22.528 4.096-43.008-2.048-59.392-10.24z m57.344-26.624c45.056 0 81.92-36.864 81.92-81.92s-36.864-81.92-81.92-81.92-81.92 36.864-81.92 81.92 36.864 81.92 81.92 81.92z" p-id="5750"></path></svg>