<?xml version="1.0" standalone="no"?><!DOCTYPE svg PUBLIC "-//W3C//DTD SVG 1.1//EN" "http://www.w3.org/Graphics/SVG/1.1/DTD/svg11.dtd"><svg t="1548299348234" class="icon" style="" viewBox="0 0 1024 1024" version="1.1" xmlns="http://www.w3.org/2000/svg" p-id="2734" xmlns:xlink="http://www.w3.org/1999/xlink" width="200" height="200"><defs><style type="text/css"></style></defs><path d="M 959.1 556.4 c 0 -0.3 0.1 -0.6 0.1 -0.9 c 0 -24.8 -20.1 -44.9 -44.9 -44.9 H 513.2 v -401 c 0 -24.8 -20.1 -44.9 -44.9 -44.9 c -1.7 0 -3.2 0.3 -4.8 0.5 l -0.1 -1 C 235.7 89.4 64 281.3 64 510.6 c 0 247.7 201.5 449.2 449.2 449.2 c 231.4 0 423.5 -173.4 446.8 -403.3 l -0.9 -0.1 Z M 513.2 870 C 315 870 153.8 708.8 153.8 510.6 c 0 -166.3 112.9 -307.6 269.5 -347.7 v 392.6 c 0 24.8 20.1 44.9 44.9 44.9 h 392.6 C 820.9 757.2 679.9 870 513.2 870 Z" fill="" p-id="2735"></path><path d="M 628 431.8 h 285.3 c 21.1 0 38.6 -14.6 43.5 -34.2 l 0.8 0.1 c 0.3 -3.2 0.3 -6.6 0.5 -9.9 c 0 -0.3 0.1 -0.6 0.1 -1 v -0.3 c 0.4 -6.6 1 -13.1 1 -19.8 c 0 -166.8 -135.7 -302.6 -302.6 -302.6 c -11.2 0 -22.5 0.6 -33.6 1.8 v 0.2 c -22.5 2.5 -40 21.3 -40 44.4 v 265.9 c 0 1.8 0.3 3.4 0.5 5.1 c -0.2 1.7 -0.5 3.4 -0.5 5.1 c 0.1 25.1 20.2 45.2 45 45.2 Z m 44.9 -276.9 C 774.3 162.6 856 241.7 867.8 342 H 672.9 V 154.9 Z" fill="" p-id="2736"></path></svg>