<?xml version="1.0" standalone="no"?><!DOCTYPE svg PUBLIC "-//W3C//DTD SVG 1.1//EN" "http://www.w3.org/Graphics/SVG/1.1/DTD/svg11.dtd"><svg t="1548299557163" class="icon" style="" viewBox="0 0 1024 1024" version="1.1" xmlns="http://www.w3.org/2000/svg" p-id="2273" xmlns:xlink="http://www.w3.org/1999/xlink" width="200" height="200"><defs><style type="text/css"></style></defs><path d="M770.8 917.8h-570c-16.6 0-30-13.4-30-30v-640c0-16.6 13.4-30 30-30h570c16.6 0 30 13.4 30 30v640c0 16.5-13.4 30-30 30z" fill="#E0DDFF" p-id="2274"></path><path d="M770.8 927.8h-570c-22.1 0-40-17.9-40-40v-640c0-22.1 17.9-40 40-40h570c22.1 0 40 17.9 40 40v640c0 22-17.9 40-40 40z m-570-700c-11 0-20 9-20 20v640c0 11 9 20 20 20h570c11 0 20-9 20-20v-640c0-11-9-20-20-20h-570z" fill="#7B1FA2" p-id="2275"></path><path d="M353.3 170.8v94c0 1.7-1.3 3-3 3s-3-1.3-3-3v-94c0-1.7 1.3-3 3-3 1.6 0 3 1.3 3 3z" fill="#40220F" p-id="2276"></path><path d="M350.3 277.8c-7.2 0-13-5.8-13-13v-94c0-7.2 5.8-13 13-13s13 5.8 13 13v94c0 7.1-5.9 13-13 13z" fill="#7B1FA2" p-id="2277"></path><path d="M624.3 170.8v94c0 1.7-1.3 3-3 3s-3-1.3-3-3v-94c0-1.7 1.3-3 3-3s3 1.3 3 3z" fill="#40220F" p-id="2278"></path><path d="M621.3 277.8c-7.2 0-13-5.8-13-13v-94c0-7.2 5.8-13 13-13s13 5.8 13 13v94c0 7.1-5.8 13-13 13z" fill="#7B1FA2" p-id="2279"></path><path d="M631 414.6H337c-1.7 0-3-1.3-3-3s1.3-3 3-3h294c1.7 0 3 1.3 3 3 0 1.6-1.3 3-3 3z" fill="#FFFFFF" p-id="2280"></path><path d="M631 424.6H337c-7.2 0-13-5.8-13-13s5.8-13 13-13h294c7.2 0 13 5.8 13 13s-5.8 13-13 13z" fill="#7B1FA2" p-id="2281"></path><path d="M632.8 567.4h-294c-1.7 0-3-1.3-3-3s1.3-3 3-3h294c1.7 0 3 1.3 3 3 0 1.6-1.3 3-3 3z" fill="#FFFFFF" p-id="2282"></path><path d="M632.8 577.4h-294c-7.2 0-13-5.8-13-13s5.8-13 13-13h294c7.2 0 13 5.8 13 13s-5.8 13-13 13z" fill="#7B1FA2" p-id="2283"></path><path d="M631.9 729.1h-294c-1.7 0-3-1.3-3-3s1.3-3 3-3h294c1.7 0 3 1.3 3 3 0 1.6-1.3 3-3 3z" fill="#FFFFFF" p-id="2284"></path><path d="M631.9 739.1h-294c-7.2 0-13-5.8-13-13s5.8-13 13-13h294c7.2 0 13 5.8 13 13s-5.8 13-13 13z" fill="#7B1FA2" p-id="2285"></path><path d="M799.8 809.4m-110 0a110 110 0 1 0 220 0 110 110 0 1 0-220 0Z" fill="#D1C4E9" p-id="2286"></path><path d="M799.8 929.4c-66.2 0-120-53.8-120-120s53.8-120 120-120 120 53.8 120 120-53.9 120-120 120z m0-220c-55.1 0-100 44.9-100 100s44.9 100 100 100 100-44.9 100-100-44.9-100-100-100z" fill="#7B1FA2" p-id="2287"></path><path d="M842.3 785.3L790 837.6c-1.2 1.2-3.1 1.2-4.2 0-1.2-1.2-1.2-3.1 0-4.2l52.3-52.3c1.2-1.2 3.1-1.2 4.2 0 1.1 1.1 1.1 3 0 4.2z" fill="#40220F" p-id="2288"></path><path d="M787.8 848.5c-3.3 0-6.7-1.3-9.2-3.8-5.1-5.1-5.1-13.3 0-18.4L831 774c5.1-5.1 13.3-5.1 18.4 0 5.1 5.1 5.1 13.3 0 18.4L797 844.7c-2.5 2.5-5.8 3.8-9.2 3.8z" fill="#7B1FA2" p-id="2289"></path><path d="M757.3 811.4l24 24c1.2 1.2 3.1 1.2 4.2 0 1.2-1.2 1.2-3.1 0-4.2l-24-24c-1.2-1.2-3.1-1.2-4.2 0-1.2 1.1-1.2 3 0 4.2z" fill="#40220F" p-id="2290"></path><path d="M783.4 846.3c-3.3 0-6.7-1.3-9.2-3.8l-24-24c-5.1-5.1-5.1-13.3 0-18.4 5.1-5.1 13.3-5.1 18.4 0l24 24c2.5 2.5 3.8 5.7 3.8 9.2 0 3.5-1.4 6.7-3.8 9.2-2.5 2.5-5.8 3.8-9.2 3.8z" fill="#7B1FA2" p-id="2291"></path></svg>