<?xml version="1.0" standalone="no"?><!DOCTYPE svg PUBLIC "-//W3C//DTD SVG 1.1//EN" "http://www.w3.org/Graphics/SVG/1.1/DTD/svg11.dtd"><svg t="1548299401744" class="icon" style="" viewBox="0 0 1024 1024" version="1.1" xmlns="http://www.w3.org/2000/svg" p-id="3598" xmlns:xlink="http://www.w3.org/1999/xlink" width="200" height="200"><defs><style type="text/css"></style></defs><path d="M39.385 0A39.385 39.385 0 0 0 0 39.385v945.23a39.385 39.385 0 0 0 78.77 0V39.385A39.385 39.385 0 0 0 39.384 0z" p-id="3599"></path><path d="M984.615 945.23H39.385a39.385 39.385 0 0 0 0 78.77h945.23a39.385 39.385 0 0 0 0-78.77z" p-id="3600"></path><path d="M39.385 0A39.385 39.385 0 0 0 0 39.385v945.23a39.385 39.385 0 0 0 78.77 0V39.385A39.385 39.385 0 0 0 39.384 0zM419.76 328.546a39.542 39.542 0 0 0-27.884 11.5l-222.76 222.76a39.385 39.385 0 0 0 55.69 55.848l222.76-222.76a39.385 39.385 0 0 0-27.806-67.348z" p-id="3601"></path><path d="M420.076 328.546a39.385 39.385 0 0 0-27.884 67.19l222.76 222.76a39.385 39.385 0 1 0 55.847-55.532l-222.76-222.76a39.385 39.385 0 0 0-27.963-11.658z" p-id="3602"></path><path d="M920.34 272.857a39.542 39.542 0 0 0-27.885 11.5L613.927 562.885a39.385 39.385 0 0 0 55.848 55.769l278.528-278.528a39.385 39.385 0 0 0-27.963-67.27z" p-id="3603"></path></svg>