<?xml version="1.0" standalone="no"?><!DOCTYPE svg PUBLIC "-//W3C//DTD SVG 1.1//EN" "http://www.w3.org/Graphics/SVG/1.1/DTD/svg11.dtd"><svg t="1548299572557" class="icon" style="" viewBox="0 0 1024 1024" version="1.1" xmlns="http://www.w3.org/2000/svg" p-id="2406" xmlns:xlink="http://www.w3.org/1999/xlink" width="200" height="200"><defs><style type="text/css"></style></defs><path d="M932.709319 526.187117c14.186094 0 23.64349-11.82328 23.64349-23.644513L956.352809 228.374314c0-51.999304-42.559305-94.541213-94.559633-94.541213L159.83173 133.833101c-51.999304 0-94.542236 42.541909-94.542236 94.541213l0 567.251372c0 52.000328 42.541909 94.542236 94.542236 94.542236l704.335517 0c51.998281 0 94.542236-42.540885 94.542236-94.542236L958.709483 691.62503c0-14.186094-11.81407-23.626094-23.645536-23.626094-14.168698 0-23.626094 11.81407-23.626094 23.626094l0 0 0 0 0 0 0 99.270934c0 28.373211-21.271466 49.626257-49.644677 49.626257L459.999161 840.522222l0 0-295.438733 0c-26.000164 0-49.627281-21.25407-49.627281-49.626257L114.933147 233.104035c0-28.365025 23.627117-49.635467 49.627281-49.635467l694.878121 0c25.998117 0 49.64263 21.270443 49.64263 49.635467l0 267.082918C909.081179 514.363837 920.895249 526.187117 932.709319 526.187117L932.709319 526.187117 932.709319 526.187117 932.709319 526.187117zM534.82331 313.458131c0-7.084349-4.728698-14.176884-14.186094-14.176884L223.645105 299.281247c-7.084349 0-14.169721 4.728698-14.169721 14.176884l0 66.187445c0 7.084349 7.084349 14.176884 14.169721 14.176884l296.992111 0c7.085372 0 14.186094-4.728698 14.186094-14.176884L534.82331 313.458131 534.82331 313.458131 534.82331 313.458131 534.82331 313.458131zM419.411767 481.271138c0-7.093559-4.728698-14.177907-14.186094-14.177907L223.645105 467.093231c-7.084349 0-14.169721 7.085372-14.169721 14.177907l0 66.185398c0 7.085372 7.084349 14.170744 14.169721 14.170744l181.580568 0c7.101745 0 14.186094-4.712325 14.186094-14.170744L419.411767 481.271138 419.411767 481.271138 419.411767 481.271138 419.411767 481.271138zM289.813107 637.270075l-66.169025 0c-7.084349 0-14.169721 7.085372-14.169721 14.186094l0 66.169025c0 7.085372 7.084349 14.186094 14.169721 14.186094l66.169025 0c7.101745 0 14.20349-4.728698 14.20349-14.186094l0-66.169025C304.01762 641.998773 296.915875 637.270075 289.813107 637.270075L289.813107 637.270075 289.813107 637.270075 289.813107 637.270075zM455.270463 592.355119l-2.373047 4.728698 0 4.728698-4.711302 101.627608 0 23.64349 23.627117-9.457396 96.915283-35.45756 4.728698-2.354628 2.356674-4.728698 259.997546-342.710362 9.44-14.187117-14.168698-9.448186-87.456864-66.186422-14.186094-9.448186-9.442046 14.176884L455.270463 592.355119 455.270463 592.355119 455.270463 592.355119zM724.710055 273.281083l87.456864 66.177212-2.356674-23.636327L549.812699 658.541541l7.100722-4.728698-96.915283 35.45756 21.271466 16.540721 2.372024-99.270934-4.746094 9.457396 269.456988-347.447247L724.710055 273.281083 724.710055 273.281083 724.710055 273.281083zM760.167614 400.916019l18.914792-28.364001-75.644841-54.365188-18.897396 28.365025L760.167614 400.916019 760.167614 400.916019 760.167614 400.916019zM760.167614 400.916019" p-id="2407"></path></svg>