<?xml version="1.0" standalone="no"?><!DOCTYPE svg PUBLIC "-//W3C//DTD SVG 1.1//EN" "http://www.w3.org/Graphics/SVG/1.1/DTD/svg11.dtd"><svg t="1548300927639" class="icon" style="" viewBox="0 0 1024 1024" version="1.1" xmlns="http://www.w3.org/2000/svg" p-id="8762" xmlns:xlink="http://www.w3.org/1999/xlink" width="200" height="200"><defs><style type="text/css"></style></defs><path d="M548.571429 731.428571h-73.142858c-21.942857 0-36.571429 14.628571-36.571428 36.571429s14.628571 36.571429 36.571428 36.571429h73.142858c21.942857 0 36.571429-14.628571 36.571428-36.571429s-14.628571-36.571429-36.571428-36.571429z m292.571428 146.285715H804.571429c0-153.6-87.771429-241.371429-146.285715-307.2-21.942857-21.942857-51.2-43.885714-51.2-58.514286 0-7.314286 21.942857-21.942857 36.571429-29.257143C702.171429 438.857143 804.571429 358.4 804.571429 146.285714h36.571428c21.942857 0 36.571429-14.628571 36.571429-36.571428s-14.628571-36.571429-36.571429-36.571429h-658.285714c-21.942857 0-36.571429 14.628571-36.571429 36.571429s14.628571 36.571429 36.571429 36.571428H219.428571c0 212.114286 102.4 292.571429 160.914286 336.457143 14.628571 7.314286 36.571429 21.942857 36.571429 29.257143 0 14.628571-29.257143 36.571429-51.2 65.828571-58.514286 58.514286-146.285714 146.285714-146.285715 299.885715h-36.571428c-21.942857 0-36.571429 14.628571-36.571429 36.571428s14.628571 36.571429 36.571429 36.571429h658.285714c21.942857 0 36.571429-14.628571 36.571429-36.571429s-14.628571-36.571429-36.571429-36.571428zM292.571429 877.714286c0-124.342857 73.142857-197.485714 124.342857-256 36.571429-36.571429 73.142857-73.142857 73.142857-109.714286 0-43.885714-29.257143-65.828571-65.828572-87.771429C365.714286 380.342857 292.571429 321.828571 292.571429 146.285714h438.857142c0 175.542857-73.142857 234.057143-131.657142 277.942857-36.571429 21.942857-65.828571 43.885714-65.828572 87.771429s36.571429 73.142857 73.142857 109.714286C658.285714 680.228571 731.428571 753.371429 731.428571 877.714286H292.571429z" p-id="8763"></path></svg>