<?xml version="1.0" standalone="no"?><!DOCTYPE svg PUBLIC "-//W3C//DTD SVG 1.1//EN" "http://www.w3.org/Graphics/SVG/1.1/DTD/svg11.dtd"><svg t="1548299596791" class="icon" style="" viewBox="0 0 1024 1024" version="1.1" xmlns="http://www.w3.org/2000/svg" p-id="2522" xmlns:xlink="http://www.w3.org/1999/xlink" width="200" height="200"><defs><style type="text/css"></style></defs><path d="M853.333333 1024H170.666667c-70.4 0-128-57.6-128-128V128c0-70.4 57.6-128 128-128h416v42.666667H170.666667C123.733333 42.666667 85.333333 81.066667 85.333333 128v768c0 46.933333 38.4 85.333333 85.333334 85.333333h682.666666c46.933333 0 85.333333-38.4 85.333334-85.333333V497.066667h42.666666V896c0 70.4-57.6 128-128 128z" p-id="2523"></path><path d="M934.4 34.133333L663.466667 706.133333c-4.266667 10.666667-17.066667 17.066667-27.733334 12.8-10.666667-4.266667-17.066667-17.066667-12.8-27.733333L893.866667 19.2c4.266667-10.666667 17.066667-17.066667 27.733333-12.8 12.8 4.266667 17.066667 17.066667 12.8 27.733333zM599.466667 407.466667H211.2c-10.666667 0-19.2-8.533333-19.2-19.2V384c0-10.666667 8.533333-19.2 19.2-19.2h388.266667c10.666667 0 19.2 8.533333 19.2 19.2v4.266667c0 10.666667-8.533333 19.2-19.2 19.2zM475.733333 689.066667H206.933333c-8.533333 0-14.933333-6.4-14.933333-14.933334V661.333333c0-8.533333 6.4-14.933333 14.933333-14.933333h266.666667c8.533333 0 14.933333 6.4 14.933333 14.933333v10.666667c2.133333 10.666667-4.266667 17.066667-12.8 17.066667z" p-id="2524"></path></svg>